<svg xmlns="http://www.w3.org/2000/svg" width="1024" height="1024" viewBox="0 0 1024 1024" version="1.1"><path d="M 485.500 179.054 C 442.148 183.050, 401.959 193.854, 364 211.715 C 306.831 238.615, 256.948 283.988, 223.430 339.576 C 198.865 380.316, 183.302 425.741, 177.375 474 C 173.840 502.778, 175.362 543.391, 181.122 574 C 202.996 690.231, 284.722 785.962, 396.740 826.568 C 473.128 854.257, 562.020 853.425, 635.934 824.329 C 734.466 785.541, 808.321 704.375, 837.580 602.721 C 856.738 536.162, 853.199 458.990, 827.899 391.640 C 816.969 362.544, 797.355 328.609, 776.376 302.500 C 759.107 281.008, 731.994 255.821, 708.717 239.648 C 662.953 207.850, 609.673 187.598, 553 180.458 C 538.021 178.570, 499.445 177.768, 485.500 179.054 M 695.108 298.250 C 691.745 300.587, 662.557 321.659, 630.246 345.075 C 597.936 368.492, 556.913 398.131, 539.085 410.940 C 489.632 446.471, 484 450.815, 484 453.425 C 484 456.846, 486.588 458.114, 494.527 458.583 C 533.902 460.912, 569.478 481.931, 584.412 511.688 C 590.339 523.498, 592.162 531.605, 592.733 548.692 C 593.340 566.884, 591.629 579.101, 586.328 594.405 C 575.229 626.455, 552.974 652.069, 517.333 673.816 C 512.210 676.942, 508.014 679.896, 508.009 680.379 C 507.995 681.790, 523.603 680.036, 533.582 677.504 C 560.405 670.700, 587.424 654.767, 609 633.031 C 625.999 615.906, 636.087 600.148, 642.412 580.838 C 654.552 543.778, 649.601 504.336, 629 474 L 624.768 467.769 659.302 398.134 C 678.296 359.835, 697.050 321.314, 700.978 312.530 C 707.596 297.733, 707.991 296.467, 706.369 295.280 C 703.557 293.224, 701.597 293.741, 695.108 298.250 M 489.514 373.107 C 460.209 376.191, 433.755 389.257, 410.861 411.953 C 388.225 434.393, 378.965 455.625, 378.928 485.167 C 378.896 511.083, 386.779 529.698, 406 549.090 C 418.244 561.444, 426.308 566.965, 448.500 578.192 C 470.359 589.250, 471.897 590.605, 471.965 598.860 C 472.028 606.681, 467.228 613.778, 450.507 630.580 C 424.507 656.707, 391.193 682.659, 355 704.981 C 339.303 714.663, 334.706 718.518, 337 720.080 C 339.768 721.964, 348.521 720.222, 366.572 714.197 C 427.138 693.980, 467.040 672.350, 500.442 641.632 C 525.676 618.424, 537.311 594.552, 533.941 572.902 C 530.977 553.860, 517.938 541.088, 482.048 522.074 C 457.128 508.871, 448.218 501.336, 441.759 488 C 439.105 482.520, 438.544 480.058, 438.189 472.313 C 437.400 455.139, 443.150 442.906, 460 425.907 C 473.291 412.499, 484.787 404.852, 509.555 392.946 C 532.983 381.684, 537.370 379.390, 537.769 378.194 C 538.314 376.558, 530.350 374.062, 521.259 373.020 C 511.228 371.871, 500.991 371.899, 489.514 373.107" stroke="none" fill="#80befc" fill-rule="evenodd"/><path d="M 0 512.001 L 0 1024.002 512.250 1023.751 L 1024.500 1023.500 1024.751 511.750 L 1025.002 0 512.501 0 L 0 0 0 512.001 M 0.496 512.500 C 0.496 794.100, 0.610 909.151, 0.750 768.168 C 0.890 627.186, 0.890 396.786, 0.750 256.168 C 0.610 115.551, 0.496 230.900, 0.496 512.500 M 485.500 179.054 C 442.148 183.050, 401.959 193.854, 364 211.715 C 306.831 238.615, 256.948 283.988, 223.430 339.576 C 198.865 380.316, 183.302 425.741, 177.375 474 C 173.840 502.778, 175.362 543.391, 181.122 574 C 202.996 690.231, 284.722 785.962, 396.740 826.568 C 473.128 854.257, 562.020 853.425, 635.934 824.329 C 734.466 785.541, 808.321 704.375, 837.580 602.721 C 856.738 536.162, 853.199 458.990, 827.899 391.640 C 816.969 362.544, 797.355 328.609, 776.376 302.500 C 759.107 281.008, 731.994 255.821, 708.717 239.648 C 662.953 207.850, 609.673 187.598, 553 180.458 C 538.021 178.570, 499.445 177.768, 485.500 179.054 M 695.108 298.250 C 691.745 300.587, 662.557 321.659, 630.246 345.075 C 597.936 368.492, 556.913 398.131, 539.085 410.940 C 489.632 446.471, 484 450.815, 484 453.425 C 484 456.846, 486.588 458.114, 494.527 458.583 C 533.902 460.912, 569.478 481.931, 584.412 511.688 C 590.339 523.498, 592.162 531.605, 592.733 548.692 C 593.340 566.884, 591.629 579.101, 586.328 594.405 C 575.229 626.455, 552.974 652.069, 517.333 673.816 C 512.210 676.942, 508.014 679.896, 508.009 680.379 C 507.995 681.790, 523.603 680.036, 533.582 677.504 C 560.405 670.700, 587.424 654.767, 609 633.031 C 625.999 615.906, 636.087 600.148, 642.412 580.838 C 654.552 543.778, 649.601 504.336, 629 474 L 624.768 467.769 659.302 398.134 C 678.296 359.835, 697.050 321.314, 700.978 312.530 C 707.596 297.733, 707.991 296.467, 706.369 295.280 C 703.557 293.224, 701.597 293.741, 695.108 298.250 M 489.514 373.107 C 460.209 376.191, 433.755 389.257, 410.861 411.953 C 388.225 434.393, 378.965 455.625, 378.928 485.167 C 378.896 511.083, 386.779 529.698, 406 549.090 C 418.244 561.444, 426.308 566.965, 448.500 578.192 C 470.359 589.250, 471.897 590.605, 471.965 598.860 C 472.028 606.681, 467.228 613.778, 450.507 630.580 C 424.507 656.707, 391.193 682.659, 355 704.981 C 339.303 714.663, 334.706 718.518, 337 720.080 C 339.768 721.964, 348.521 720.222, 366.572 714.197 C 427.138 693.980, 467.040 672.350, 500.442 641.632 C 525.676 618.424, 537.311 594.552, 533.941 572.902 C 530.977 553.860, 517.938 541.088, 482.048 522.074 C 457.128 508.871, 448.218 501.336, 441.759 488 C 439.105 482.520, 438.544 480.058, 438.189 472.313 C 437.400 455.139, 443.150 442.906, 460 425.907 C 473.291 412.499, 484.787 404.852, 509.555 392.946 C 532.983 381.684, 537.370 379.390, 537.769 378.194 C 538.314 376.558, 530.350 374.062, 521.259 373.020 C 511.228 371.871, 500.991 371.899, 489.514 373.107" stroke="none" fill="#fbfbfc" fill-rule="evenodd"/></svg>